Coordinates
version=1
nRows=11
nColumns=40
inDegrees=yes

Units are S.I. units (second, meters, Newtons, ...)
Angles are in degrees.

endheader
time	pelvis_tilt	pelvis_list	pelvis_rotation	pelvis_tx	pelvis_ty	pelvis_tz	hip_flexion_r	hip_adduction_r	hip_rotation_r	knee_angle_r	knee_angle_r_beta	ankle_angle_r	subtalar_angle_r	mtp_angle_r	hip_flexion_l	hip_adduction_l	hip_rotation_l	knee_angle_l	knee_angle_l_beta	ankle_angle_l	subtalar_angle_l	mtp_angle_l	lumbar_extension	lumbar_bending	lumbar_rotation	arm_flex_r	arm_add_r	arm_rot_r	elbow_flex_r	pro_sup_r	wrist_flex_r	wrist_dev_r	arm_flex_l	arm_add_l	arm_rot_l	elbow_flex_l	pro_sup_l	wrist_flex_l	wrist_dev_l
     52.72750000	     -5.55522964	     -3.71773375	      4.12684543	      1.09225816	      0.90929740	      0.45326401	      2.45529828	     -3.62572884	    -14.38259915	     35.21446671	     35.21446671	     13.35936810	    -12.15857487	    -10.37018240	     32.05948021	     -4.94753768	     -3.90731736	     29.65140521	     29.65140521	      6.89638097	    -15.48087263	      5.66560144	     -8.48295800	      4.30537833	      3.68618571	     43.67257260	    -13.89459703	     -6.96284953	    100.95525017	     44.22130604	      0.00000000	      0.00000000	    -10.70931056	     -6.33629654	      5.71303388	     22.91463006	     45.19478296	      0.00000000	      0.00000000
     52.73857143	     -5.52353606	     -3.53945031	      3.94359835	      1.09210486	      0.91104094	      0.45104531	      4.32783549	     -4.48292362	    -13.97944007	     39.37758308	     39.37758308	     11.64388757	    -13.90400496	    -10.31840047	     31.19520954	     -4.83046712	     -4.42367465	     29.46224700	     29.46224700	      7.58966975	    -15.01028726	      5.22093610	     -8.54423173	      4.17368882	      3.38462641	     41.74752934	    -13.51628285	     -6.78712194	    101.00867760	     44.21380104	      0.00000000	      0.00000000	     -9.31185698	     -6.51580849	      5.68740110	     23.35183220	     45.23024028	      0.00000000	      0.00000000
     52.74964286	     -5.64328118	     -3.62722402	      3.66484880	      1.09171146	      0.91258637	      0.44951553	      6.56607287	     -4.79560876	    -13.10566563	     43.55888168	     43.55888168	     10.23490918	    -15.99213207	     -8.53384366	     30.48894890	     -5.10384472	     -5.12141644	     29.19300245	     29.19300245	      8.14211085	    -14.24258068	      4.16090462	     -8.47911829	      4.19032614	      3.88110635	     39.06739550	    -13.92820136	     -7.44694435	    102.11836416	     44.22654549	      0.00000000	      0.00000000	     -7.67217553	     -6.82557587	      5.54611060	     23.82594819	     45.30538114	      0.00000000	      0.00000000
     52.76071429	     -5.66278519	     -3.36748044	      3.49808504	      1.09114762	      0.91433014	      0.44758629	      8.65532949	     -5.75758012	    -12.92501706	     47.62396160	     47.62396160	      8.82461473	    -16.92164833	     -7.95194974	     29.49889544	     -4.86540255	     -5.68026729	     28.62793975	     28.62793975	      8.68716275	    -13.71538163	      3.79140180	     -8.54876433	      3.92688060	      3.40304094	     37.08061317	    -13.36642411	     -7.13411143	    101.74142997	     44.22776914	      0.00000000	      0.00000000	     -6.12444695	     -6.98833717	      5.53279616	     24.34470929	     45.33905770	      0.00000000	      0.00000000
     52.77178571	     -5.72602373	     -3.22682933	      3.26749052	      1.09041393	      0.91595100	      0.44603887	     10.88045612	     -6.46751955	    -12.53345063	     51.54684125	     51.54684125	      7.72229351	    -17.72504765	     -6.83058469	     28.59387893	     -4.79671040	     -6.27576579	     28.08660670	     28.08660670	      9.15777759	    -13.12667391	      3.34845661	     -8.56926387	      3.74282080	      3.09339943	     34.88806277	    -13.03152372	     -6.90997320	    101.17240042	     44.23773332	      0.00000000	      0.00000000	     -4.61916486	     -7.29464797	      5.46034989	     24.96154297	     45.38085307	      0.00000000	      0.00000000
     52.78285714	     -5.75024953	     -3.25024775	      3.03685359	      1.08955232	      0.91751996	      0.44480957	     13.38995052	     -6.74947019	    -11.78921915	     55.84671899	     55.84671899	      9.56915959	    -17.30194426	      2.57235762	     27.64745545	     -4.95007287	     -6.93485054	     27.46288517	     27.46288517	      9.05085557	    -12.50554561	      1.48435406	     -8.64513196	      3.78304700	      3.29371525	     32.28255600	    -13.03538506	     -7.47128031	    100.98348609	     44.32782841	      0.00000000	      0.00000000	     -2.88197128	     -7.60876655	      5.20509368	     25.90800458	     45.47646131	      0.00000000	      0.00000000
     52.79392857	     -5.68219416	     -3.18203547	      2.85329310	      1.08865486	      0.91918510	      0.44344676	     15.40850849	     -7.24898674	    -11.44533607	     59.08836949	     59.08836949	      8.60116069	    -17.85169866	      2.71018671	     26.65005266	     -4.90310335	     -7.33436424	     26.95191585	     26.95191585	      9.46218158	    -12.10921620	      1.29529225	     -8.83672316	      3.75400514	      2.84920554	     30.07263188	    -12.59253014	     -7.06141923	    100.04074057	     44.34068571	      0.00000000	      0.00000000	     -1.24141695	     -8.00550538	      5.13128862	     26.55488147	     45.51769325	      0.00000000	      0.00000000
     52.80500000	     -5.69830077	     -3.11722335	      2.63849973	      1.08766517	      0.92064807	      0.44219096	     17.57624179	     -7.67626881	    -11.01556996	     62.14962452	     62.14962452	      8.19251940	    -18.10322711	      3.70223349	     25.69637593	     -4.88389758	     -7.86086177	     26.33072012	     26.33072012	      9.80541405	    -11.47966122	      0.85850564	     -8.87743066	      3.73178553	      2.80487628	     27.79434128	    -12.74088742	     -6.99058052	     98.35121933	     44.39740794	      0.00000000	      0.00000000	      0.47851966	     -8.38880208	      4.96895670	     27.50039193	     45.57431804	      0.00000000	      0.00000000
     52.81607143	     -5.58558206	     -3.16070781	      2.45607187	      1.08670538	      0.92220579	      0.44111448	     19.49100189	     -7.92408506	    -10.66282331	     64.72408016	     64.72408016	      7.62369174	    -18.28675645	      3.89137458	     24.71411927	     -4.93927001	     -8.13928108	     25.88097578	     25.88097578	     10.16659480	    -11.20695574	      0.67358573	     -9.14314875	      3.80397744	      2.33833991	     25.46309835	    -12.22774125	     -6.60280682	     97.21990614	     44.41530302	      0.00000000	      0.00000000	      2.19038843	     -8.86427470	      4.86356667	     28.20763238	     45.61944558	      0.00000000	      0.00000000
     52.82714286	     -5.62234554	     -3.10677978	      2.20378052	      1.08565470	      0.92352279	      0.44005331	     21.64220916	     -8.18712127	    -10.10948815	     67.09984827	     67.09984827	      7.38081401	    -18.25211905	      4.57361144	     23.76624482	     -4.90079508	     -8.59891909	     25.20104779	     25.20104779	     10.39421505	    -10.73091442	      0.31477628	     -9.17599904	      3.75773255	      2.41198269	     23.13354756	    -12.57129518	     -6.66704594	     94.92002721	     44.49196590	      0.00000000	      0.00000000	      3.89003756	     -9.21902793	      4.68729940	     29.20178630	     45.67380337	      0.00000000	      0.00000000
     52.83821429	     -5.47754460	     -3.21684971	      2.05917719	      1.08473800	      0.92494584	      0.43904688	     23.43004307	     -8.24424697	     -9.75102394	     68.95909646	     68.95909646	      7.05512500	    -18.20872323	      4.72246599	     22.77392018	     -4.99657956	     -8.78265966	     24.76549608	     24.76549608	     10.72933992	    -10.51927128	      0.09587599	     -9.42229411	      3.98567846	      2.04132983	     20.85833848	    -12.29669149	     -6.43251777	     93.27924208	     44.53246890	      0.00000000	      0.00000000	      5.63392350	     -9.71195928	      4.55432977	     29.99410938	     45.72067774	      0.00000000	      0.00000000
